<svg xmlns="http://www.w3.org/2000/svg" width="218.1" height="89.7" viewBox="0 0 218.1 89.7"><path d="M7.3,17.3H.1a.1.1,0,0,1-.1-.1V.1A.1.1,0,0,1,.1,0H7.3a.1.1,0,0,1,.1.1V17.2A.1.1,0,0,1,7.3,17.3Z" transform="translate(20.5 45.2)" fill="#f67d43"/><path d="M7.3,16.5H.1a.1.1,0,0,1-.1-.1V.1A.1.1,0,0,1,.1,0H7.3a.1.1,0,0,1,.1.1V16.3A.349.349,0,0,1,7.3,16.5Z" transform="translate(30 28.6)" fill="#f67d43"/><path d="M7.3,17.3H.1a.1.1,0,0,1-.1-.1V.1A.1.1,0,0,1,.1,0H7.3a.1.1,0,0,1,.1.1V17.2Z" transform="translate(39.3 45.2)" fill="#f67d43"/><path d="M7.3,16.5H.1a.1.1,0,0,1-.1-.1V.1A.1.1,0,0,1,.1,0H7.3a.1.1,0,0,1,.1.1V16.3C7.4,16.4,7.4,16.5,7.3,16.5Z" transform="translate(47.8 28.6)" fill="#f67d43"/><g transform="translate(81.7 9.5)"><path d="M15.3,30A14.693,14.693,0,0,1,4.4,25.7,14.641,14.641,0,0,1,0,15,14.48,14.48,0,0,1,4.4,4.3,14.693,14.693,0,0,1,15.3,0a15.213,15.213,0,0,1,9.6,3.2,14.48,14.48,0,0,1,5.3,8.3H24.9a9.615,9.615,0,0,0-3.6-4.8,10.136,10.136,0,0,0-6-1.8A9.908,9.908,0,0,0,5.2,15a10.2,10.2,0,0,0,2.9,7.3,9.8,9.8,0,0,0,7.2,2.9,10.582,10.582,0,0,0,6-1.8,9.615,9.615,0,0,0,3.6-4.8h5.3a14,14,0,0,1-5.3,8.3A15.752,15.752,0,0,1,15.3,30Z" fill="#0e1423"/><path d="M0,0H11.3V4.6H4.7V21.4H0V0Z" transform="translate(33 8)" fill="#0e1423"/><path d="M11.6,15.6,17.8,0h5.3L10.6,29.4H3V25.1H7.3L9,21.3,0,0H5.4Z" transform="translate(45 8.1)" fill="#0e1423"/><path d="M4.7,29.9H0V.5H4.7V3.8A10.367,10.367,0,0,1,8.087.962,9.255,9.255,0,0,1,12.3,0a9.991,9.991,0,0,1,7.5,3.2,11.371,11.371,0,0,1,3,8,11.184,11.184,0,0,1-3,8,9.993,9.993,0,0,1-7.5,3.2,9.423,9.423,0,0,1-4.288-.962A9.654,9.654,0,0,1,4.7,18.6V29.9ZM11.5,4.5A6.454,6.454,0,0,0,6.7,6.4a6.294,6.294,0,0,0-1.9,4.8,6.5,6.5,0,0,0,6.7,6.7A6.25,6.25,0,0,0,16.2,16a6.451,6.451,0,0,0,1.9-4.8,6.455,6.455,0,0,0-1.9-4.8A6.25,6.25,0,0,0,11.5,4.5Z" transform="translate(69.8 7.5)" fill="#0e1423"/><path d="M14.3,6.4v4.3H8.7V23.5h5.6v4.3H4V10.6H0V6.3H4V0H8.7V6.3h5.6Z" transform="translate(92.9 1.6)" fill="#0e1423"/><path d="M11.5,22.4a12.253,12.253,0,0,1-4.513-.812A11.4,11.4,0,0,1,3.3,19.2a10.628,10.628,0,0,1-3.3-8,10.8,10.8,0,0,1,3.3-8A11.012,11.012,0,0,1,11.5,0a12.04,12.04,0,0,1,4.437.812A12.281,12.281,0,0,1,19.7,3.2a10.628,10.628,0,0,1,3.3,8,10.628,10.628,0,0,1-3.3,8,11.4,11.4,0,0,1-3.688,2.387A12.248,12.248,0,0,1,11.5,22.4Zm.1-18A6.453,6.453,0,0,0,6.8,6.3a6.37,6.37,0,0,0-1.9,4.8,6.5,6.5,0,0,0,6.7,6.7,6.116,6.116,0,0,0,4.7-1.9,6.454,6.454,0,0,0,1.9-4.8,6.45,6.45,0,0,0-1.9-4.8A6.254,6.254,0,0,0,11.6,4.4Z" transform="translate(107.6 7.6)" fill="#0e1423"/></g><g transform="translate(85.2 47.8)"><path d="M0,0H20.7V4.7H12.9V29h-5V4.7H0Z" transform="translate(0 1.3)" fill="#0e1423"/><path d="M0,0H11.3V4.6H4.7V21.4H0Z" transform="translate(20.7 8.9)" fill="#0e1423"/><path d="M7.8,22a8.291,8.291,0,0,1-5.6-2A6.636,6.636,0,0,1,0,14.9a6.325,6.325,0,0,1,2.2-5A7.823,7.823,0,0,1,7.8,7.8h5.8V4.6H1.6V.1H18.4V17.2H21v4.3H14.2V19.1A7.439,7.439,0,0,1,7.8,22Zm.9-10.3a3.924,3.924,0,0,0-2.6.9,2.75,2.75,0,0,0,0,4.4,3.586,3.586,0,0,0,2.6.9,6.43,6.43,0,0,0,3.6-.9,2.957,2.957,0,0,0,1.4-2.5V11.7Z" transform="translate(32.6 8.9)" fill="#0e1423"/><path d="M10.6,30.8A10.239,10.239,0,0,1,3,27.6a11.37,11.37,0,0,1-3-8,11.37,11.37,0,0,1,3-8,9.706,9.706,0,0,1,7.6-3.2c.111,0,.223-.005.333-.005A8.552,8.552,0,0,1,18.1,12.2V0h4.7V30.3H18.1V27A8.744,8.744,0,0,1,10.6,30.8Zm.9-17.9a6.448,6.448,0,0,0-4.8,1.9,6.37,6.37,0,0,0-1.9,4.8,6.451,6.451,0,0,0,1.9,4.8,6.88,6.88,0,0,0,4.8,1.9,6.247,6.247,0,0,0,4.7-1.9,6.448,6.448,0,0,0,1.9-4.8,6.448,6.448,0,0,0-1.9-4.8A6.248,6.248,0,0,0,11.5,12.9Z" transform="translate(54.2)" fill="#0e1423"/><path d="M11.5,22.4a12.246,12.246,0,0,1-4.513-.813A11.4,11.4,0,0,1,3.3,19.2a10.626,10.626,0,0,1-3.3-8,10.8,10.8,0,0,1,3.3-8A11.008,11.008,0,0,1,11.5,0a12.248,12.248,0,0,1,4.512.812A11.4,11.4,0,0,1,19.7,3.2a9.99,9.99,0,0,1,3.4,7.9,9.746,9.746,0,0,1-.1,1.8H5.2a6.675,6.675,0,0,0,2.2,3.8,6.858,6.858,0,0,0,4.2,1.4,8.65,8.65,0,0,0,3.6-.8,5.425,5.425,0,0,0,2.3-2.2h5.1a10.432,10.432,0,0,1-4.2,5.3A12.438,12.438,0,0,1,11.5,22.4Zm.1-18.3a5.976,5.976,0,0,0-4,1.3A6.238,6.238,0,0,0,5.3,9H18a6.815,6.815,0,0,0-2.3-3.6A6.5,6.5,0,0,0,11.6,4.1Z" transform="translate(79.7 8.5)" fill="#0e1423"/><path d="M0,0H11.3V4.6H4.7V21.4H0V0Z" transform="translate(105.5 8.9)" fill="#0e1423"/><path d="M7.6,22.5a8.083,8.083,0,0,1-5.5-2A6.293,6.293,0,0,1,0,15.7H4.8a2.56,2.56,0,0,0,.8,1.9,3.037,3.037,0,0,0,2.1.8,2.489,2.489,0,0,0,1.9-.7,2.088,2.088,0,0,0,.8-1.6c0-1.3-1.3-2.4-3.8-3C2.4,12.1.2,9.9.2,6.5A5.671,5.671,0,0,1,2.3,1.8,7.652,7.652,0,0,1,7.5,0a7.506,7.506,0,0,1,5.3,1.9,6.03,6.03,0,0,1,2.1,4.6H10.1a2.193,2.193,0,0,0-.7-1.7,2.489,2.489,0,0,0-1.9-.7,2.523,2.523,0,0,0-1.7.6,1.8,1.8,0,0,0-.7,1.5q0,1.95,3.9,3c4.2,1.1,6.3,3.2,6.3,6.5a6.052,6.052,0,0,1-2.2,5A8.463,8.463,0,0,1,7.6,22.5Z" transform="translate(117.6 8.3)" fill="#0e1423"/></g><path d="M69.2,67.4l-8.3-5.9a27.9,27.9,0,1,1,0-32.2l8.3-5.9h0A38.6,38.6,0,0,0,47.6,8.5V0H38.3V7.3h-.2a31.453,31.453,0,0,0-4.4.3V.1H24.4V9.9a38.025,38.025,0,0,0,0,71v8.8h9.3V83.2a32.528,32.528,0,0,0,4.4.3h.2v6.2h9.3V82.3A37.8,37.8,0,0,0,69.2,67.4Z" transform="translate(0 0)" fill="#f67d43"/><rect width="1.5" height="35.7" transform="translate(23.4 38.5)" fill="#f67d43"/><rect width="1.5" height="35.7" transform="translate(42.2 38.5)" fill="#f67d43"/><rect width="1.5" height="35.5" transform="translate(32.9 16.8)" fill="#f67d43"/><rect width="1.5" height="35.5" transform="translate(50.7 16.8)" fill="#f67d43"/></svg>
