<svg xmlns="http://www.w3.org/2000/svg" width="30" height="32" viewBox="0 0 30 32" fill="none">
<path fill-rule="evenodd" clip-rule="evenodd" d="M20.2335 2.08156C25.9365 4.18396 30 9.62241 30 16.0009C30 22.3793 25.9365 27.816 20.2335 29.9202V27.5988C24.7095 25.6163 27.8304 21.1683 27.8304 16.0009C27.8304 10.8335 24.7095 6.38541 20.2335 4.40289V2.08156ZM17.9603 11.1462H18.6537V8.85443C17.5566 8.30363 16.3138 7.99262 14.9991 7.99262C14.6252 7.99262 14.2566 8.01868 13.8968 8.06733V12.4806H14.5901V16.0634H13.8968V19.8182H12.9788V16.0634H12.2854V12.4806H12.9788V8.24456C9.4892 9.13243 6.9089 12.2687 6.9089 16.0009C6.9089 18.5724 8.1341 20.859 10.0369 22.3255V20.9042H9.34351V17.3214H10.0369V12.5467H10.9549V17.3214H11.6482V20.9042H10.9549V22.9388C12.145 23.6199 13.5247 24.0091 14.9991 24.0091C15.194 24.0091 15.3888 24.0022 15.5801 23.9883V20.1501H14.8868V16.5673H15.5801V12.7361H16.4982V16.5673H17.1915V20.1501H16.4982V23.8701C18.9468 23.4149 21.0075 21.8668 22.1432 19.7574H25.8031C24.7007 22.8606 22.2731 25.347 19.1926 26.5476V32H16.4982V27.2357C16.0067 27.3 15.5064 27.333 14.9974 27.333C14.4883 27.333 13.9881 27.3 13.4966 27.2357V32H10.8022V26.5476C6.55433 24.8918 3.54748 20.7912 3.54748 15.9991C3.54748 11.207 6.55784 7.10822 10.8057 5.45235V0H13.5001V4.76429C13.9916 4.70001 14.4918 4.66699 15.0009 4.66699C15.5099 4.66699 16.0102 4.70001 16.5017 4.76429V0H19.1961V5.45235C22.2766 6.65472 24.7042 9.13938 25.8066 12.2426H22.1467C21.5324 11.101 20.646 10.1228 19.5735 9.3948V11.1462H20.2668V14.729H19.5735V19.0103H18.6554V14.729H17.9621V11.1462H17.9603ZM9.76654 29.9184C4.06354 27.816 0 22.3776 0 16.0009C0 9.62415 4.06354 4.18396 9.76654 2.08156V4.40289C5.2905 6.38367 2.16956 10.8317 2.16956 16.0009C2.16956 21.17 5.2905 25.6163 9.76654 27.5988V29.9202V29.9184Z" fill="#171717"/>
<defs fill="#171717">
<linearGradient id="paint0_linear_1_684" x1="7" y1="2" x2="22" y2="32" gradientUnits="userSpaceOnUse" fill="#171717">
<stop stop-color="white" fill="#171717"/>
<stop offset="1" stop-color="#000000" fill="#171717"/>
</linearGradient>
</defs>
</svg>